<?xml version="1.0" encoding="UTF-8" standalone="no"?>
<svg
   xmlns:dc="http://purl.org/dc/elements/1.1/"
   xmlns:cc="http://creativecommons.org/ns#"
   xmlns:rdf="http://www.w3.org/1999/02/22-rdf-syntax-ns#"
   xmlns:svg="http://www.w3.org/2000/svg"
   xmlns="http://www.w3.org/2000/svg"
   viewBox="0 0 257.33334 257.33334"
   height="257.33334"
   width="257.33334"
   xml:space="preserve"
   id="svg2"
   version="1.1"><metadata
     id="metadata8"><rdf:RDF><cc:Work
         rdf:about=""><dc:format>image/svg+xml</dc:format><dc:type
           rdf:resource="http://purl.org/dc/dcmitype/StillImage" /></cc:Work></rdf:RDF></metadata><defs
     id="defs6" /><g
     transform="matrix(1.3333333,0,0,-1.3333333,0,257.33333)"
     id="g10"><g
       transform="scale(0.1)"
       id="g12"><path
         id="path14"
         style="fill:#ffffff;fill-opacity:1;fill-rule:evenodd;stroke:none"
         d="M 0,1927.56 H 1927.56 V 0 H 0 v 1927.56" /><path
         id="path16"
         style="fill:#f47216;fill-opacity:1;fill-rule:evenodd;stroke:none"
         d="m 1379.09,807.285 c 12.68,0 23.01,-10.332 23.01,-23.008 0,-12.679 -10.33,-23.011 -23.01,-23.011 -12.68,0 -23.01,10.332 -23.01,23.011 0,12.676 10.33,23.008 23.01,23.008" /><path
         id="path18"
         style="fill:#f47216;fill-opacity:1;fill-rule:evenodd;stroke:none"
         d="m 866.289,810.102 v 398.218 c 0,6.58 1.406,12.92 3.754,18.56 2.582,6.1 6.105,11.5 10.566,15.96 4.461,4.46 9.86,7.98 15.965,10.57 5.871,2.34 11.977,3.75 18.551,3.75 h 74.902 74.903 c 6.57,0 12.91,-1.41 18.78,-3.75 5.87,-2.35 11.27,-6.11 15.73,-10.57 4.47,-4.46 8.22,-9.86 10.8,-15.96 2.35,-5.64 3.53,-11.98 3.53,-18.56 V 810.102 c 0,-0.938 0,-1.875 0,-2.817 h 182.67 c 6.34,0 12.21,-2.582 16.44,-6.808 4.23,-4.227 6.81,-9.864 6.81,-16.2 0,-6.343 -2.58,-12.214 -6.81,-16.441 -4.23,-3.988 -10.1,-6.809 -16.44,-6.809 H 1064.93 1002 990.027 915.125 c -6.574,0 -12.68,1.411 -18.551,3.762 -6.105,2.582 -11.269,6.102 -15.965,10.797 -4.461,4.465 -7.984,9.863 -10.566,15.734 -2.348,5.871 -3.754,12.207 -3.754,18.782 z m 123.738,400.808 h -74.902 c -0.234,0 -0.707,0 -0.937,-0.24 -0.235,0 -0.708,-0.23 -0.942,-0.47 -0.234,-0.23 -0.469,-0.7 -0.469,-0.94 -0.234,-0.23 -0.234,-0.7 -0.234,-0.94 V 810.102 c 0,-0.469 0,-0.704 0.234,-0.938 0,-0.473 0.235,-0.707 0.469,-0.937 0.234,-0.239 0.707,-0.473 0.942,-0.707 0.23,0 0.703,-0.235 0.937,-0.235 h 74.902 74.903 c 0.46,0 0.7,0.235 0.94,0.235 0.47,0.234 0.7,0.468 0.93,0.707 0.24,0.23 0.47,0.464 0.71,0.937 0,0.234 0.24,0.469 0.24,0.938 v 398.218 c 0,0.24 -0.24,0.71 -0.24,0.94 -0.24,0.24 -0.47,0.71 -0.71,0.94 -0.23,0.24 -0.46,0.47 -0.93,0.47 -0.24,0.24 -0.48,0.24 -0.94,0.24 h -74.903" /><path
         id="path20"
         style="fill:#f47216;fill-opacity:1;fill-rule:evenodd;stroke:none"
         d="m 149.91,1257.16 h 525.719 c 6.574,0 12.914,-1.41 18.551,-3.75 6.101,-2.35 11.504,-6.11 15.965,-10.57 4.46,-4.46 8.218,-9.86 10.566,-15.96 2.348,-5.64 3.758,-11.98 3.758,-18.56 v -149.8 c 0,-6.57 -1.41,-12.91 -3.758,-18.78 -2.348,-5.87 -6.106,-11.27 -10.566,-15.73 -4.461,-4.46 -9.864,-8.22 -15.965,-10.57 -5.637,-2.58 -11.977,-3.76 -18.551,-3.76 H 624.91 L 833.887,800.477 c 4.461,-4.461 6.808,-10.332 6.808,-16.2 0,-5.871 -2.347,-11.742 -6.808,-16.441 -3.055,-2.816 -6.574,-4.93 -10.571,-5.867 -3.753,-0.942 -7.746,-0.942 -11.503,0 -3.993,0.937 -7.512,3.051 -10.567,5.867 L 559.637,1009.68 H 412.652 149.91 c -6.574,0 -12.914,1.18 -18.781,3.76 -5.871,2.35 -11.274,6.11 -15.734,10.57 -4.696,4.46 -8.215,9.86 -10.801,15.73 -2.348,5.87 -3.524,12.21 -3.524,18.78 v 149.8 c 0,6.58 1.176,12.92 3.524,18.56 2.586,6.1 6.34,11.5 10.801,15.96 4.46,4.46 9.863,7.98 15.734,10.57 5.867,2.34 12.207,3.75 18.781,3.75 z m 262.742,-46.25 H 149.91 c -0.469,0 -0.703,0 -0.937,-0.24 -0.473,0 -0.707,-0.23 -0.942,-0.47 -0.234,-0.23 -0.468,-0.7 -0.703,-0.94 0,-0.23 -0.234,-0.7 -0.234,-0.94 v -149.8 c 0,-0.47 0.234,-0.7 0.234,-0.94 0.235,-0.47 0.469,-0.7 0.703,-0.94 0.235,-0.23 0.469,-0.46 0.942,-0.7 0.234,0 0.468,-0.24 0.937,-0.24 h 262.742 262.977 c 0.234,0 0.703,0.24 0.937,0.24 0.239,0.24 0.707,0.47 0.938,0.7 0.238,0.24 0.473,0.47 0.707,0.94 0,0.24 0,0.47 0,0.94 v 149.8 c 0,0.24 0,0.71 0,0.94 -0.234,0.24 -0.469,0.71 -0.707,0.94 -0.231,0.24 -0.465,0.47 -0.938,0.47 -0.234,0.24 -0.703,0.24 -0.937,0.24 H 412.652" /><path
         id="path22"
         style="fill:#d3d2d2;fill-opacity:1;fill-rule:evenodd;stroke:none"
         d="m 1429.34,682.371 h 19.25 c 1.64,0 3.05,0.234 4.46,0.234 7.99,0.469 13.62,1.879 17.38,4.696 4.22,3.054 6.34,8.453 6.34,15.734 0,6.574 -1.64,11.504 -5.4,14.789 -3.53,3.289 -8.69,5.168 -15.73,5.168 h -2.59 -23.71 z m 23.71,-11.973 c -0.47,0 -0.7,0 -1.17,0 h -37.34 v 63.864 h 38.51 2.59 c 11.74,0 20.66,-2.582 27,-8.219 6.34,-5.398 9.39,-13.148 9.39,-23.242 0,-6.106 -1.18,-11.274 -3.52,-16.203 -2.58,-4.696 -5.87,-8.453 -10.57,-11.274 -2.58,-1.64 -6.1,-3.047 -10.33,-3.754 -3.75,-0.703 -8.69,-1.172 -14.56,-1.172 z m 61.75,0 v 52.36 h 56.12 v -9.16 h -43.2 v -11.504 h 25.12 v -8.922 h -25.12 v -12.914 h 43.91 v -9.86 z m 123.51,42.965 h -35.92 v -11.035 h 34.04 c 5.4,0 8.92,-0.937 10.8,-2.582 1.88,-1.644 2.82,-4.93 2.82,-9.625 v -7.281 c 0,-4.93 -0.94,-7.981 -2.82,-9.86 -1.88,-1.644 -5.4,-2.582 -10.8,-2.582 h -34.04 c -5.41,0 -8.93,0.938 -10.8,2.582 -2.12,1.879 -3.06,4.93 -3.06,9.86 v 1.41 l 11.51,2.113 v -6.105 h 38.5 v 11.972 h -34.04 c -5.17,0 -8.92,0.942 -10.8,2.586 -1.88,1.641 -2.82,4.93 -2.82,9.864 v 5.867 c 0,4.695 0.94,7.75 2.82,9.625 1.88,1.644 5.63,2.586 10.8,2.586 h 31.23 c 5.16,0 8.92,-0.707 10.8,-2.586 1.88,-1.641 3.05,-4.457 3.05,-8.684 v -1.41 l -11.27,-2.348 z m 33.81,-42.965 v 52.36 h 12.68 v -52.36 z m 87.35,42.735 h -39.92 v -32.641 h 39.92 v 11.035 h -20.67 v 9.395 h 33.11 V 682.84 c 0,-4.93 -0.94,-7.981 -2.82,-9.86 -1.88,-1.644 -5.39,-2.582 -10.56,-2.582 h -38.04 c -5.4,0 -8.92,0.938 -10.8,2.582 -1.88,1.879 -2.82,4.93 -2.82,9.86 v 27.707 c 0,4.695 0.94,7.984 2.82,9.625 1.88,1.644 5.4,2.586 10.8,2.586 h 38.04 c 5.17,0 8.68,-0.707 10.56,-2.586 1.88,-1.641 2.82,-4.692 2.82,-9.156 v -1.407 l -12.44,-2.113 z m 34.28,-42.735 v 52.36 h 8.92 l 44.38,-34.754 v 34.754 h 11.5 v -52.36 h -8.69 l -44.37,35.219 v -35.219 h -11.74" /></g></g></svg>